<svg width="24" height="25" viewBox="0 0 24 25" fill="none" xmlns="http://www.w3.org/2000/svg">
<g clip-path="url(#clip0_459_12)">
<path d="M5 4.0332H9L11 9.0332L8.5 10.5332C9.57096 12.7047 11.3285 14.4622 13.5 15.5332L15 13.0332L20 15.0332V19.0332C20 19.5636 19.7893 20.0723 19.4142 20.4474C19.0391 20.8225 18.5304 21.0332 18 21.0332C14.0993 20.7962 10.4202 19.1397 7.65683 16.3764C4.8935 13.6131 3.23705 9.93394 3 6.0332C3 5.50277 3.21071 4.99406 3.58579 4.61899C3.96086 4.24392 4.46957 4.0332 5 4.0332" stroke="white" stroke-width="2" stroke-linecap="round" stroke-linejoin="round"/>
</g>
<defs>
<clipPath id="clip0_459_12">
<rect width="24" height="24" fill="white" transform="translate(0 0.0332031)"/>
</clipPath>
</defs>
</svg>
